REM DIRINDEX 1\2,1\3
REM DIRNAME cjc140,folder01,folder02
TITLE ""
FILE "Track13.mp3" MP3
  TRACK 01 AUDIO
    TITLE "0:"
    INDEX 01 00:00:00
  TRACK 02 AUDIO
    TITLE "3:cjc140_039"
    INDEX 01 00:00:05
  TRACK 03 AUDIO
    TITLE "2:cjc140_040"
    INDEX 01 00:01:62
  TRACK 04 AUDIO
    TITLE "2:cjc140_041"
    INDEX 01 00:13:08
  TRACK 05 AUDIO
    TITLE "0:"
    INDEX 01 00:21:60
